<svg id="_126252" data-name="126252" xmlns="http://www.w3.org/2000/svg" width="15.334" height="15.334" viewBox="0 0 15.334 15.334">
  <g id="Сгруппировать_188" data-name="Сгруппировать 188">
    <g id="Сгруппировать_187" data-name="Сгруппировать 187">
      <path id="Контур_120" data-name="Контур 120" d="M7.667,0a7.667,7.667,0,1,0,7.667,7.667A7.667,7.667,0,0,0,7.667,0Zm2.676,11.551a4.726,4.726,0,0,1-.716.259,4.755,4.755,0,0,1-2.8-.035,3.646,3.646,0,0,1-2.313-2.2c-.085-.208-.142-.426-.208-.644h-.88a.265.265,0,0,1-.265-.265V8.071a.265.265,0,0,1,.265-.265h.729V7.323H3.426a.265.265,0,0,1-.265-.265V6.465A.265.265,0,0,1,3.426,6.2h.928l.032-.091A3.926,3.926,0,0,1,5.723,4.127,3.827,3.827,0,0,1,7.5,3.392a5.054,5.054,0,0,1,2.688.319,1.118,1.118,0,0,1,.164.079.355.355,0,0,1,.17.5c-.1.233-.2.47-.3.7a.334.334,0,0,1-.432.215c-.293-.066-.581-.158-.874-.218a3.173,3.173,0,0,0-1.836.1A1.907,1.907,0,0,0,6.033,6.184a.04.04,0,0,0,0,.019h1.8a.265.265,0,0,1,.265.265v.593a.265.265,0,0,1-.265.265H5.774c0,.158,0,.316,0,.483h2.06a.265.265,0,0,1,.265.265v.593a.265.265,0,0,1-.265.265H5.954A1.974,1.974,0,0,0,7.244,10.3a3.28,3.28,0,0,0,1.675.047c.29-.06.574-.148.865-.215a.336.336,0,0,1,.445.218q.161.35.3.71A.34.34,0,0,1,10.343,11.551Z" fill="#54b036"/>
    </g>
  </g>
</svg>
