<svg xmlns="http://www.w3.org/2000/svg" width="19.28" height="19.28" viewBox="0 0 19.28 19.28">
  <g id="facebook_white" transform="translate(0)">
    <path id="Контур_127" data-name="Контур 127" d="M18.215,0H1.063A1.064,1.064,0,0,0,0,1.064V18.217A1.064,1.064,0,0,0,1.064,19.28H18.215a1.064,1.064,0,0,0,1.064-1.064h0V1.063A1.064,1.064,0,0,0,18.215,0Zm0,0" transform="translate(0 0)" fill="#fff"/>
    <path id="Контур_128" data-name="Контур 128" d="M212.623,94.008v-7.6h2.562l.384-2.975h-2.946V81.539c0-.859.239-1.445,1.471-1.445h1.562V77.441a20.992,20.992,0,0,0-2.288-.117,3.573,3.573,0,0,0-3.814,3.92v2.189H207v2.975h2.552v7.6Zm0,0" transform="translate(-199.324 -74.728)" fill="#4267b2"/>
  </g>
</svg>
